<mxfile host="app.diagrams.net" modified="2022-02-21T00:11:21.711Z" agent="5.0 (Windows NT 10.0; Win64; x64) AppleWebKit/537.36 (KHTML, like Gecko) Chrome/98.0.4758.102 Safari/537.36" etag="aBfWYzB8u6wOSNN2s7_M" version="16.6.1" type="github">
  <diagram id="GPRn_TsGlNyGoDoV9zWH" name="Page-1">
    <mxGraphModel dx="1038" dy="617" grid="1" gridSize="10" guides="1" tooltips="1" connect="1" arrows="1" fold="1" page="1" pageScale="1" pageWidth="850" pageHeight="1100" math="0" shadow="0">
      <root>
        <mxCell id="0" />
        <mxCell id="1" parent="0" />
        <mxCell id="jKOnlKKnSLFyDzo6ULko-1" value="" style="swimlane;startSize=0;" parent="1" vertex="1">
          <mxGeometry x="40" y="40" width="90" height="80" as="geometry" />
        </mxCell>
        <mxCell id="jKOnlKKnSLFyDzo6ULko-2" style="edgeStyle=orthogonalEdgeStyle;rounded=0;orthogonalLoop=1;jettySize=auto;html=1;exitX=0;exitY=0;exitDx=0;exitDy=0;entryX=0.124;entryY=-0.025;entryDx=0;entryDy=0;entryPerimeter=0;" parent="1" source="jKOnlKKnSLFyDzo6ULko-1" target="jKOnlKKnSLFyDzo6ULko-1" edge="1">
          <mxGeometry relative="1" as="geometry" />
        </mxCell>
        <mxCell id="jKOnlKKnSLFyDzo6ULko-3" value="Shot Boundasry Detection" style="ellipse;whiteSpace=wrap;html=1;aspect=fixed;" parent="1" vertex="1">
          <mxGeometry x="160" y="220" width="110" height="110" as="geometry" />
        </mxCell>
        <mxCell id="jKOnlKKnSLFyDzo6ULko-4" value="" style="endArrow=none;html=1;rounded=0;" parent="1" edge="1">
          <mxGeometry width="50" height="50" relative="1" as="geometry">
            <mxPoint x="160" y="380" as="sourcePoint" />
            <mxPoint x="290" y="380" as="targetPoint" />
          </mxGeometry>
        </mxCell>
        <mxCell id="jKOnlKKnSLFyDzo6ULko-5" value="" style="endArrow=none;html=1;rounded=0;" parent="1" edge="1">
          <mxGeometry width="50" height="50" relative="1" as="geometry">
            <mxPoint x="160" y="440" as="sourcePoint" />
            <mxPoint x="290" y="440" as="targetPoint" />
          </mxGeometry>
        </mxCell>
        <mxCell id="jKOnlKKnSLFyDzo6ULko-6" value="" style="endArrow=none;html=1;rounded=0;" parent="1" edge="1">
          <mxGeometry width="50" height="50" relative="1" as="geometry">
            <mxPoint x="470" y="380" as="sourcePoint" />
            <mxPoint x="600" y="380" as="targetPoint" />
          </mxGeometry>
        </mxCell>
        <mxCell id="jKOnlKKnSLFyDzo6ULko-7" value="" style="endArrow=none;html=1;rounded=0;" parent="1" edge="1">
          <mxGeometry width="50" height="50" relative="1" as="geometry">
            <mxPoint x="470" y="320" as="sourcePoint" />
            <mxPoint x="600" y="320" as="targetPoint" />
          </mxGeometry>
        </mxCell>
        <mxCell id="jKOnlKKnSLFyDzo6ULko-8" value="" style="swimlane;startSize=0;" parent="1" vertex="1">
          <mxGeometry x="540" y="35" width="130" height="120" as="geometry" />
        </mxCell>
        <mxCell id="jKOnlKKnSLFyDzo6ULko-9" value="Shot Preview" style="ellipse;whiteSpace=wrap;html=1;aspect=fixed;" parent="1" vertex="1">
          <mxGeometry x="670" y="450" width="110" height="110" as="geometry" />
        </mxCell>
        <mxCell id="jKOnlKKnSLFyDzo6ULko-10" value="Video Database" style="text;html=1;align=center;verticalAlign=middle;resizable=0;points=[];autosize=1;strokeColor=none;fillColor=none;" parent="1" vertex="1">
          <mxGeometry x="40" y="70" width="100" height="20" as="geometry" />
        </mxCell>
        <mxCell id="jKOnlKKnSLFyDzo6ULko-11" value="Annotation Database" style="text;html=1;align=center;verticalAlign=middle;resizable=0;points=[];autosize=1;strokeColor=none;fillColor=none;" parent="1" vertex="1">
          <mxGeometry x="160" y="400" width="130" height="20" as="geometry" />
        </mxCell>
        <mxCell id="jKOnlKKnSLFyDzo6ULko-12" value="Storyboard Preview" style="text;html=1;align=center;verticalAlign=middle;resizable=0;points=[];autosize=1;strokeColor=none;fillColor=none;" parent="1" vertex="1">
          <mxGeometry x="480" y="330" width="120" height="20" as="geometry" />
        </mxCell>
        <mxCell id="jKOnlKKnSLFyDzo6ULko-13" value="User" style="text;html=1;align=center;verticalAlign=middle;resizable=0;points=[];autosize=1;strokeColor=none;fillColor=none;" parent="1" vertex="1">
          <mxGeometry x="570" y="70" width="40" height="20" as="geometry" />
        </mxCell>
        <mxCell id="jKOnlKKnSLFyDzo6ULko-14" value="" style="endArrow=classic;html=1;rounded=0;edgeStyle=elbowEdgeStyle;entryX=0;entryY=0.5;entryDx=0;entryDy=0;exitX=0.5;exitY=1;exitDx=0;exitDy=0;" parent="1" edge="1" target="jKOnlKKnSLFyDzo6ULko-3" source="jKOnlKKnSLFyDzo6ULko-1">
          <mxGeometry width="50" height="50" relative="1" as="geometry">
            <mxPoint x="100" y="130" as="sourcePoint" />
            <mxPoint x="200" y="210" as="targetPoint" />
          </mxGeometry>
        </mxCell>
        <mxCell id="jKOnlKKnSLFyDzo6ULko-18" value="" style="endArrow=classic;html=1;rounded=0;exitX=0.636;exitY=0.976;exitDx=0;exitDy=0;exitPerimeter=0;" parent="1" source="jKOnlKKnSLFyDzo6ULko-3" edge="1">
          <mxGeometry width="50" height="50" relative="1" as="geometry">
            <mxPoint x="470" y="300" as="sourcePoint" />
            <mxPoint x="230" y="380" as="targetPoint" />
            <Array as="points" />
          </mxGeometry>
        </mxCell>
        <mxCell id="jKOnlKKnSLFyDzo6ULko-20" value="" style="endArrow=classic;html=1;rounded=0;edgeStyle=orthogonalEdgeStyle;" parent="1" edge="1">
          <mxGeometry width="50" height="50" relative="1" as="geometry">
            <mxPoint x="290" y="430" as="sourcePoint" />
            <mxPoint x="540" y="380" as="targetPoint" />
          </mxGeometry>
        </mxCell>
        <mxCell id="jKOnlKKnSLFyDzo6ULko-21" value="" style="endArrow=classic;html=1;rounded=0;edgeStyle=orthogonalEdgeStyle;entryX=1;entryY=0.25;entryDx=0;entryDy=0;" parent="1" edge="1" target="jKOnlKKnSLFyDzo6ULko-8" source="jKOnlKKnSLFyDzo6ULko-9">
          <mxGeometry width="50" height="50" relative="1" as="geometry">
            <mxPoint x="730" y="420" as="sourcePoint" />
            <mxPoint x="730" y="80" as="targetPoint" />
          </mxGeometry>
        </mxCell>
        <mxCell id="jKOnlKKnSLFyDzo6ULko-25" value="Putri Alfiyyahdianti&lt;br&gt;18320041" style="text;html=1;align=center;verticalAlign=middle;resizable=0;points=[];autosize=1;strokeColor=none;fillColor=none;" parent="1" vertex="1">
          <mxGeometry x="215" y="35" width="110" height="30" as="geometry" />
        </mxCell>
        <mxCell id="tT52GNIxI_FA4AVb7Dem-1" value="" style="endArrow=classic;html=1;rounded=0;entryX=0;entryY=0.5;entryDx=0;entryDy=0;exitX=0.378;exitY=1.023;exitDx=0;exitDy=0;exitPerimeter=0;edgeStyle=elbowEdgeStyle;" edge="1" parent="1" source="jKOnlKKnSLFyDzo6ULko-1" target="jKOnlKKnSLFyDzo6ULko-9">
          <mxGeometry width="50" height="50" relative="1" as="geometry">
            <mxPoint x="70" y="130" as="sourcePoint" />
            <mxPoint x="450" y="290" as="targetPoint" />
            <Array as="points">
              <mxPoint x="74" y="370" />
            </Array>
          </mxGeometry>
        </mxCell>
        <mxCell id="tT52GNIxI_FA4AVb7Dem-2" value="" style="endArrow=classic;html=1;rounded=0;exitX=0.5;exitY=1;exitDx=0;exitDy=0;" edge="1" parent="1" source="jKOnlKKnSLFyDzo6ULko-3">
          <mxGeometry width="50" height="50" relative="1" as="geometry">
            <mxPoint x="400" y="340" as="sourcePoint" />
            <mxPoint x="215" y="380" as="targetPoint" />
          </mxGeometry>
        </mxCell>
        <mxCell id="tT52GNIxI_FA4AVb7Dem-3" value="" style="endArrow=classic;html=1;rounded=0;exitX=1.031;exitY=0.61;exitDx=0;exitDy=0;exitPerimeter=0;edgeStyle=orthogonalEdgeStyle;" edge="1" parent="1" source="jKOnlKKnSLFyDzo6ULko-11">
          <mxGeometry width="50" height="50" relative="1" as="geometry">
            <mxPoint x="400" y="340" as="sourcePoint" />
            <mxPoint x="520" y="380" as="targetPoint" />
          </mxGeometry>
        </mxCell>
        <mxCell id="tT52GNIxI_FA4AVb7Dem-7" value="" style="endArrow=classic;html=1;rounded=0;exitX=1;exitY=0.5;exitDx=0;exitDy=0;entryX=0.356;entryY=0.035;entryDx=0;entryDy=0;entryPerimeter=0;edgeStyle=orthogonalEdgeStyle;" edge="1" parent="1" source="jKOnlKKnSLFyDzo6ULko-8" target="jKOnlKKnSLFyDzo6ULko-9">
          <mxGeometry width="50" height="50" relative="1" as="geometry">
            <mxPoint x="400" y="340" as="sourcePoint" />
            <mxPoint x="450" y="290" as="targetPoint" />
          </mxGeometry>
        </mxCell>
        <mxCell id="tT52GNIxI_FA4AVb7Dem-8" value="" style="endArrow=classic;html=1;rounded=0;edgeStyle=orthogonalEdgeStyle;" edge="1" parent="1">
          <mxGeometry width="50" height="50" relative="1" as="geometry">
            <mxPoint x="580" y="320" as="sourcePoint" />
            <mxPoint x="582" y="155" as="targetPoint" />
            <Array as="points">
              <mxPoint x="582" y="320" />
            </Array>
          </mxGeometry>
        </mxCell>
        <mxCell id="tT52GNIxI_FA4AVb7Dem-11" value="" style="endArrow=classic;html=1;rounded=0;edgeStyle=orthogonalEdgeStyle;" edge="1" parent="1" source="jKOnlKKnSLFyDzo6ULko-8">
          <mxGeometry width="50" height="50" relative="1" as="geometry">
            <mxPoint x="400" y="340" as="sourcePoint" />
            <mxPoint x="570" y="320" as="targetPoint" />
            <Array as="points">
              <mxPoint x="570" y="320" />
            </Array>
          </mxGeometry>
        </mxCell>
      </root>
    </mxGraphModel>
  </diagram>
</mxfile>
